<?xml version="1.0" encoding="utf-8"?>
<!-- Generator: Adobe Illustrator 16.0.0, SVG Export Plug-In . SVG Version: 6.00 Build 0)  -->
<!DOCTYPE svg PUBLIC "-//W3C//DTD SVG 1.1//EN" "http://www.w3.org/Graphics/SVG/1.1/DTD/svg11.dtd">
<svg version="1.1" id="Ebene_1" xmlns="http://www.w3.org/2000/svg" xmlns:xlink="http://www.w3.org/1999/xlink" x="0px" y="0px"
	 width="236.585px" height="286.411px" viewBox="0 0 236.585 286.411" enable-background="new 0 0 236.585 286.411"
	 xml:space="preserve">
<g>
	<g>
		<defs>
			<rect id="SVGID_1_" x="4.463" y="5.896" width="228.721" height="277.68"/>
		</defs>
		<clipPath id="SVGID_2_">
			<use xlink:href="#SVGID_1_"  overflow="visible"/>
		</clipPath>
		<rect x="4.463" y="5.99" clip-path="url(#SVGID_2_)" width="228.779" height="277.585"/>
		
			<path clip-path="url(#SVGID_2_)" fill="none" stroke="#FFFFFF" stroke-width="0" stroke-linecap="round" stroke-linejoin="round" stroke-miterlimit="10" d="
			M231.813,280.962V8.297 M231.813,8.297H5.608 M5.608,8.297L5.467,281.954"/>
		
			<path clip-path="url(#SVGID_2_)" fill="none" stroke="#FFFFFF" stroke-width="0.5669" stroke-linecap="round" stroke-linejoin="round" stroke-miterlimit="10" d="
			M5.467,6.993h226.772 M232.239,6.993v274.961 M232.239,281.954H5.467 M5.467,281.954V6.993"/>
		
			<path clip-path="url(#SVGID_2_)" fill="none" stroke="#FFFFFF" stroke-width="4.608" stroke-linecap="round" stroke-linejoin="round" stroke-miterlimit="10" d="
			M37.697,117.666v-4.608 M44.897,117.666v-4.608 M52.097,117.666v-4.608 M59.297,117.666v-4.608 M66.497,117.666v-4.608
			 M73.697,117.666v-4.608 M80.897,117.666v-4.608 M88.097,117.666v-4.608 M95.297,117.666v-4.608 M102.497,117.666v-4.608
			 M109.697,117.666v-4.608 M116.897,117.666v-4.608 M124.096,117.666v-4.608 M131.297,117.666v-4.608 M131.297,96.065v-4.607
			 M124.096,96.065v-4.607 M116.897,96.065v-4.607 M109.697,96.065v-4.607 M102.497,96.065v-4.607 M95.297,96.065v-4.607
			 M88.097,96.065v-4.607 M80.897,96.065v-4.607 M73.697,96.065v-4.607 M66.497,96.065v-4.607 M59.297,96.065v-4.607 M52.097,96.065
			v-4.607 M44.897,96.065v-4.607 M37.697,96.065v-4.607"/>
		
			<path clip-path="url(#SVGID_2_)" fill="none" stroke="#FFFFFF" stroke-width="5.184" stroke-linecap="round" stroke-linejoin="round" stroke-miterlimit="10" d="
			M23.297,56.754V51.57 M30.497,56.754V51.57 M37.697,56.754V51.57 M44.897,56.754V51.57 M52.097,56.754V51.57 M59.297,56.754V51.57
			"/>
	</g>
	<polygon fill="#FFFFFF" points="186.449,114.348 187.883,112.914 189.911,112.914 191.344,114.348 191.344,116.376 189.911,117.81 
		187.883,117.81 186.449,116.376 	"/>
	<polygon fill="#FFFFFF" points="193.649,114.348 195.083,112.914 197.111,112.914 198.545,114.348 198.545,116.376 197.111,117.81 
		195.083,117.81 193.649,116.376 	"/>
	<polygon fill="#FFFFFF" points="186.449,121.548 187.883,120.114 189.911,120.114 191.344,121.548 191.344,123.576 189.911,125.01 
		187.883,125.01 186.449,123.576 	"/>
	<polygon fill="#FFFFFF" points="193.649,121.548 195.083,120.114 197.111,120.114 198.545,121.548 198.545,123.576 197.111,125.01 
		195.083,125.01 193.649,123.576 	"/>
	<polygon fill="#FFFFFF" points="186.449,128.748 187.883,127.313 189.911,127.313 191.344,128.748 191.344,130.776 189.911,132.21 
		187.883,132.21 186.449,130.776 	"/>
	<polygon fill="#FFFFFF" points="193.649,128.748 195.083,127.313 197.111,127.313 198.545,128.748 198.545,130.776 197.111,132.21 
		195.083,132.21 193.649,130.776 	"/>
	
		<path fill="none" stroke="#FFFFFF" stroke-width="5.184" stroke-linecap="round" stroke-linejoin="round" stroke-miterlimit="10" d="
		M95.297,143.154v-5.185 M102.497,143.154v-5.185 M109.697,143.154v-5.185"/>
	
		<path fill="none" stroke="#FFFFFF" stroke-width="5.688" stroke-linecap="round" stroke-linejoin="round" stroke-miterlimit="10" d="
		M45.041,193.518v-5.688 M45.041,158.094v-5.688 M59.153,193.518v-5.688 M59.153,158.094v-5.688"/>
	<g>
		<defs>
			<rect id="SVGID_3_" x="4.463" y="5.896" width="228.721" height="277.68"/>
		</defs>
		<clipPath id="SVGID_4_">
			<use xlink:href="#SVGID_3_"  overflow="visible"/>
		</clipPath>
		
			<path clip-path="url(#SVGID_4_)" fill="none" stroke="#FFFFFF" stroke-width="0" stroke-linecap="round" stroke-linejoin="round" stroke-miterlimit="10" d="
			M41.939,172.936c0-1.411-1.145-2.556-2.556-2.556c-1.411,0-2.556,1.145-2.556,2.556s1.146,2.556,2.556,2.556
			C40.794,175.491,41.939,174.347,41.939,172.936 M67.379,172.936c0-1.411-1.145-2.556-2.556-2.556
			c-1.411,0-2.556,1.145-2.556,2.556s1.145,2.556,2.556,2.556C66.234,175.491,67.379,174.347,67.379,172.936"/>
		
			<path clip-path="url(#SVGID_4_)" fill="none" stroke="#FFFFFF" stroke-width="5.688" stroke-linecap="round" stroke-linejoin="round" stroke-miterlimit="10" d="
			M45.041,265.518v-5.688 M45.041,230.094v-5.688 M59.153,265.518v-5.688 M59.153,230.094v-5.688"/>
	</g>
	<path fill="none" stroke="#FFFFFF" stroke-width="0" stroke-linecap="round" stroke-linejoin="round" stroke-miterlimit="10" d="
		M41.939,244.936c0-1.411-1.145-2.556-2.556-2.556c-1.411,0-2.556,1.145-2.556,2.556s1.146,2.556,2.556,2.556
		C40.794,247.491,41.939,246.347,41.939,244.936 M67.379,244.936c0-1.411-1.145-2.556-2.556-2.556c-1.411,0-2.556,1.145-2.556,2.556
		s1.145,2.556,2.556,2.556C66.234,247.491,67.379,246.347,67.379,244.936"/>
	<g>
		<defs>
			<rect id="SVGID_5_" x="4.463" y="5.896" width="228.721" height="277.68"/>
		</defs>
		<clipPath id="SVGID_6_">
			<use xlink:href="#SVGID_5_"  overflow="visible"/>
		</clipPath>
		
			<path clip-path="url(#SVGID_6_)" fill="none" stroke="#FFFFFF" stroke-width="5.688" stroke-linecap="round" stroke-linejoin="round" stroke-miterlimit="10" d="
			M188.752,224.406v5.688 M188.752,259.83v5.688 M174.641,224.406v5.688 M174.641,259.83v5.688"/>
	</g>
	<path fill="none" stroke="#FFFFFF" stroke-width="0" stroke-linecap="round" stroke-linejoin="round" stroke-miterlimit="10" d="
		M196.979,244.936c0-1.411-1.145-2.556-2.556-2.556s-2.556,1.145-2.556,2.556s1.145,2.556,2.556,2.556
		S196.979,246.347,196.979,244.936 M171.54,244.936c0-1.411-1.145-2.556-2.557-2.556c-1.41,0-2.556,1.145-2.556,2.556
		s1.146,2.556,2.556,2.556C170.395,247.491,171.54,246.347,171.54,244.936"/>
	
		<path fill="none" stroke="#FFFFFF" stroke-width="5.688" stroke-linecap="round" stroke-linejoin="round" stroke-miterlimit="10" d="
		M174.641,193.518v-5.688 M174.641,158.094v-5.688 M188.752,193.518v-5.688 M188.752,158.094v-5.688"/>
	<g>
		<defs>
			<rect id="SVGID_7_" x="4.463" y="5.896" width="228.721" height="277.68"/>
		</defs>
		<clipPath id="SVGID_8_">
			<use xlink:href="#SVGID_7_"  overflow="visible"/>
		</clipPath>
		
			<path clip-path="url(#SVGID_8_)" fill="none" stroke="#FFFFFF" stroke-width="0" stroke-linecap="round" stroke-linejoin="round" stroke-miterlimit="10" d="
			M171.54,172.936c0-1.411-1.145-2.556-2.557-2.556c-1.41,0-2.556,1.145-2.556,2.556s1.146,2.556,2.556,2.556
			C170.395,175.491,171.54,174.347,171.54,172.936 M196.979,172.936c0-1.411-1.145-2.556-2.556-2.556s-2.556,1.145-2.556,2.556
			s1.145,2.556,2.556,2.556S196.979,174.347,196.979,172.936"/>
		
			<path clip-path="url(#SVGID_8_)" fill="none" stroke="#FFFFFF" stroke-width="5.184" stroke-linecap="round" stroke-linejoin="round" stroke-miterlimit="10" d="
			M207.436,31.554V26.37 M200.235,31.554V26.37 M193.036,31.554V26.37 M185.835,31.554V26.37 M178.635,31.554V26.37 M171.436,31.554
			V26.37 M164.235,31.554V26.37 M157.036,31.554V26.37 M149.835,31.554V26.37 M142.635,31.554V26.37 M135.436,31.554V26.37
			 M128.235,31.554V26.37 M121.036,31.554V26.37 M113.835,31.554V26.37 M106.635,31.554V26.37 M99.436,31.554V26.37"/>
	</g>
	<polygon fill="#FFFFFF" points="74.993,42.407 76.342,41.058 78.251,41.058 79.601,42.407 79.601,44.316 78.251,45.666 
		76.342,45.666 74.993,44.316 	"/>
	<polygon fill="#FFFFFF" points="80.393,38.808 81.742,37.458 83.651,37.458 85.001,38.808 85.001,40.716 83.651,42.065 
		81.742,42.065 80.393,40.716 	"/>
	<polygon fill="#FFFFFF" points="74.993,35.208 76.342,33.857 78.251,33.857 79.601,35.208 79.601,37.116 78.251,38.466 
		76.342,38.466 74.993,37.116 	"/>
	
		<path fill="none" stroke="#FFFFFF" stroke-width="5.7056" stroke-linecap="round" stroke-linejoin="round" stroke-miterlimit="10" d="
		M134.348,199.749h-5.705 M134.348,218.175h-5.705 M105.151,199.749h-5.706 M105.151,218.175h-5.706"/>
	
		<path fill="none" stroke="#FFFFFF" stroke-width="5.1386" stroke-linecap="round" stroke-linejoin="round" stroke-miterlimit="10" d="
		M134.065,210.237h-5.139 M104.868,210.237h-5.139"/>
	<polygon fill="#FFFFFF" points="185.297,52.671 187.406,50.562 190.387,50.562 192.497,52.671 192.497,55.653 190.387,57.762 
		187.406,57.762 185.297,55.653 	"/>
	<polygon fill="#FFFFFF" points="185.297,74.271 187.406,72.162 190.387,72.162 192.497,74.271 192.497,77.253 190.387,79.362 
		187.406,79.362 185.297,77.253 	"/>
	
		<path fill="none" stroke="#FFFFFF" stroke-width="5.184" stroke-linecap="round" stroke-linejoin="round" stroke-miterlimit="10" d="
		M174.497,92.754V87.57 M181.697,92.754V87.57 M141.088,72.162h-5.184 M141.088,64.962h-5.184"/>
	<polygon fill="#FFFFFF" points="150.592,56.808 151.942,55.458 153.851,55.458 155.201,56.808 155.201,58.716 153.851,60.065 
		151.942,60.065 150.592,58.716 	"/>
	<polygon fill="#FFFFFF" points="145.193,60.407 146.542,59.058 148.452,59.058 149.801,60.407 149.801,62.316 148.452,63.666 
		146.542,63.666 145.193,62.316 	"/>
	<polygon fill="#FFFFFF" points="150.592,64.008 151.942,62.658 153.851,62.658 155.201,64.008 155.201,65.916 153.851,67.266 
		151.942,67.266 150.592,65.916 	"/>
	<g>
		<defs>
			<rect id="SVGID_9_" x="4.463" y="5.896" width="228.721" height="277.68"/>
		</defs>
		<clipPath id="SVGID_10_">
			<use xlink:href="#SVGID_9_"  overflow="visible"/>
		</clipPath>
		
			<path clip-path="url(#SVGID_10_)" fill="none" stroke="#FFFFFF" stroke-width="5.184" stroke-linecap="round" stroke-linejoin="round" stroke-miterlimit="10" d="
			M30.497,78.354V73.17 M37.697,78.354V73.17 M44.897,78.354V73.17 M52.097,78.354V73.17"/>
		
			<path clip-path="url(#SVGID_10_)" fill="none" stroke="#FFFFFF" stroke-width="4.608" stroke-linecap="round" stroke-linejoin="round" stroke-miterlimit="10" d="
			M41.701,26.658v4.607 M36.301,26.658v4.607"/>
	</g>
	<polygon fill="#FFFFFF" points="74.993,78.407 76.342,77.058 78.251,77.058 79.601,78.407 79.601,80.316 78.251,81.666 
		76.342,81.666 74.993,80.316 	"/>
	<polygon fill="#FFFFFF" points="89.393,78.407 90.742,77.058 92.651,77.058 94.001,78.407 94.001,80.316 92.651,81.666 
		90.742,81.666 89.393,80.316 	"/>
	<polygon fill="#FFFFFF" points="40.001,134.316 38.651,135.666 36.742,135.666 35.393,134.316 35.393,132.407 36.742,131.058 
		38.651,131.058 40.001,132.407 	"/>
	<polygon fill="#FFFFFF" points="25.601,134.316 24.251,135.666 22.342,135.666 20.993,134.316 20.993,132.407 22.342,131.058 
		24.251,131.058 25.601,132.407 	"/>
	<polygon fill="#FFFFFF" points="46.193,136.008 47.542,134.658 49.451,134.658 50.801,136.008 50.801,137.916 49.451,139.266 
		47.542,139.266 46.193,137.916 	"/>
	<polygon fill="#FFFFFF" points="74.993,136.008 76.342,134.658 78.251,134.658 79.601,136.008 79.601,137.916 78.251,139.266 
		76.342,139.266 74.993,137.916 	"/>
	<path fill="none" stroke="#FFFFFF" stroke-width="0" stroke-linecap="round" stroke-linejoin="round" stroke-miterlimit="10" d="
		M21.075,18.375c0-2.347-1.905-4.252-4.252-4.252s-4.252,1.905-4.252,4.252c0,2.348,1.905,4.252,4.252,4.252
		S21.075,20.723,21.075,18.375 M225.196,18.375c0-2.347-1.905-4.252-4.252-4.252c-2.348,0-4.252,1.905-4.252,4.252
		c0,2.348,1.904,4.252,4.252,4.252C223.291,22.627,225.196,20.723,225.196,18.375 M225.196,270.615c0-2.347-1.905-4.252-4.252-4.252
		c-2.348,0-4.252,1.905-4.252,4.252c0,2.348,1.904,4.252,4.252,4.252C223.291,274.867,225.196,272.963,225.196,270.615
		 M21.075,270.615c0-2.347-1.905-4.252-4.252-4.252s-4.252,1.905-4.252,4.252c0,2.348,1.905,4.252,4.252,4.252
		S21.075,272.963,21.075,270.615"/>
	
		<path fill="none" stroke="#FFFFFF" stroke-width="1.152" stroke-linecap="round" stroke-linejoin="round" stroke-miterlimit="10" d="
		M131.297,93.762v-10.8 M131.297,82.962l-10.801-13.5 M120.497,69.462h-21.6"/>
	<rect x="96.895" y="67.46" fill="#FFFFFF" width="4.005" height="4.004"/>
	<rect x="96.895" y="37.76" fill="#FFFFFF" width="4.005" height="4.005"/>
	
		<path fill="none" stroke="#FFFFFF" stroke-width="1.152" stroke-linecap="round" stroke-linejoin="round" stroke-miterlimit="10" d="
		M98.897,39.762l-3.6-3.6 M95.297,36.162h-7.2 M88.097,36.162l-5.4,3.6 M193.036,28.962v18.539 M193.036,47.501l3.061,3.061
		 M196.096,50.562v10.801 M196.096,61.362l-7.199,7.199 M188.897,68.562h-7.2 M124.096,93.762v-10.8"/>
	<rect x="122.094" y="80.96" fill="#FFFFFF" width="4.005" height="4.004"/>
	<rect x="165.294" y="80.96" fill="#FFFFFF" width="4.005" height="4.004"/>
	
		<path fill="none" stroke="#FFFFFF" stroke-width="1.152" stroke-linecap="round" stroke-linejoin="round" stroke-miterlimit="10" d="
		M167.297,82.962v-3.6 M167.297,79.362l14.399-10.801 M116.897,93.762l-1.8-19.8"/>
	<rect x="113.094" y="71.96" fill="#FFFFFF" width="4.005" height="4.004"/>
	<rect x="113.094" y="40.46" fill="#FFFFFF" width="4.005" height="4.004"/>
	
		<path fill="none" stroke="#FFFFFF" stroke-width="1.152" stroke-linecap="round" stroke-linejoin="round" stroke-miterlimit="10" d="
		M115.097,42.462l1.8-3.6 M116.897,38.862h4.5 M121.397,38.862l6.838-9.9 M116.897,93.762v7.2 M116.897,100.962h32.4"/>
	<rect x="147.294" y="98.96" fill="#FFFFFF" width="4.005" height="4.004"/>
	<rect x="165.294" y="98.96" fill="#FFFFFF" width="4.005" height="4.004"/>
	
		<path fill="none" stroke="#FFFFFF" stroke-width="1.152" stroke-linecap="round" stroke-linejoin="round" stroke-miterlimit="10" d="
		M167.297,100.962h19.162 M186.459,100.962l6.094-6.095"/>
	<rect x="190.551" y="92.865" fill="#FFFFFF" width="4.004" height="4.005"/>
	<rect x="210.393" y="92.865" fill="#FFFFFF" width="4.006" height="4.005"/>
	
		<path fill="none" stroke="#FFFFFF" stroke-width="1.152" stroke-linecap="round" stroke-linejoin="round" stroke-miterlimit="10" d="
		M212.396,94.867v22.678 M212.396,117.545l-5.017,5.017 M207.379,122.562h-11.283 M109.697,93.762v-19.8"/>
	<rect x="107.694" y="71.96" fill="#FFFFFF" width="4.005" height="4.004"/>
	<rect x="107.694" y="40.46" fill="#FFFFFF" width="4.005" height="4.004"/>
	
		<path fill="none" stroke="#FFFFFF" stroke-width="1.152" stroke-linecap="round" stroke-linejoin="round" stroke-miterlimit="10" d="
		M109.697,42.462l2.7-6.3 M112.397,36.162h4.5 M116.897,36.162l4.139-7.2 M109.697,93.762v10.8 M109.697,104.562h36
		 M145.697,104.562l3.601,3.601"/>
	<rect x="147.294" y="106.159" fill="#FFFFFF" width="4.005" height="4.005"/>
	<rect x="165.294" y="106.159" fill="#FFFFFF" width="4.005" height="4.005"/>
	
		<path fill="none" stroke="#FFFFFF" stroke-width="1.152" stroke-linecap="round" stroke-linejoin="round" stroke-miterlimit="10" d="
		M167.297,108.162h14.399 M181.697,108.162l7.2,7.2 M102.497,93.762l1.8-19.8"/>
	<rect x="102.294" y="71.96" fill="#FFFFFF" width="4.005" height="4.004"/>
	<rect x="102.294" y="37.76" fill="#FFFFFF" width="4.005" height="4.005"/>
	
		<path fill="none" stroke="#FFFFFF" stroke-width="1.152" stroke-linecap="round" stroke-linejoin="round" stroke-miterlimit="10" d="
		M104.297,39.762l4.5-3.6 M108.797,36.162l5.039-7.2 M102.497,93.762v10.8 M102.497,104.562l3.6,3.601 M106.097,108.162h32.4
		 M138.497,108.162l7.2,7.2 M145.697,115.362h3.601"/>
	<rect x="147.294" y="113.359" fill="#FFFFFF" width="4.005" height="4.005"/>
	<rect x="165.294" y="113.359" fill="#FFFFFF" width="4.005" height="4.005"/>
	
		<path fill="none" stroke="#FFFFFF" stroke-width="1.152" stroke-linecap="round" stroke-linejoin="round" stroke-miterlimit="10" d="
		M167.297,115.362l10.799,7.199 M178.096,122.562h10.801 M181.697,151.362l-10.8-10.801 M170.897,140.562h-32.4 M181.697,194.562
		v-43.199 M196.096,208.962l-14.399-14.4 M196.096,266.562v-57.6 M188.897,273.762l7.199-7.2 M156.497,273.762h32.4
		 M102.497,219.762l54,54 M102.497,219.762l-0.198-1.587 M124.096,115.362v10.8"/>
	<rect x="122.094" y="124.159" fill="#FFFFFF" width="4.005" height="4.005"/>
	<rect x="136.495" y="124.159" fill="#FFFFFF" width="4.004" height="4.005"/>
	
		<path fill="none" stroke="#FFFFFF" stroke-width="1.152" stroke-linecap="round" stroke-linejoin="round" stroke-miterlimit="10" d="
		M138.497,126.162v14.399 M109.697,129.762v-14.399 M167.297,183.762h-18 M149.297,183.762l-32.4-32.399 M116.897,151.362v-14.4
		 M116.897,136.962l-7.2-7.2 M167.297,219.762v-36 M174.497,226.962l-3.6-3.6 M170.897,223.362l-3.6-3.601 M174.497,226.962
		l0.145,0.288 M174.497,230.562v28.801 M174.497,259.362l0.145,3.312 M174.497,230.562l0.145-3.312 M106.097,201.762h-3.6
		 M120.497,216.162l-14.4-14.4 M120.497,219.762v-3.6 M124.096,223.362l-3.6-3.601 M170.897,223.362h-46.801 M102.497,201.762
		l-0.198-2.013 M70.097,122.562l3.6-7.199 M70.097,136.962v-14.4 M131.297,198.162l-61.201-61.2 M131.297,198.162l0.197,1.587
		 M131.297,216.162v-3.601 M131.297,212.562l0.197-2.324 M131.297,216.162l0.197,2.013 M66.497,219.762v-75.6 M66.497,144.162v-28.8
		 M59.297,226.962l7.2-7.2 M59.297,226.962l-0.144,0.288 M59.297,230.562v28.801 M59.297,259.362l-0.144,3.312 M59.297,230.562
		l-0.144-3.312 M66.497,144.162l64.801,64.8 M131.297,208.962l0.197,1.275 M59.297,154.962v-39.6 M59.297,154.962l-0.144,0.288
		 M59.297,158.562v28.801 M59.297,187.362l-0.144,3.312 M59.297,158.562l-0.144-3.312 M52.097,111.762v3.601 M44.897,104.562
		l7.2,7.2 M34.097,104.562h10.8 M23.297,93.762l10.8,10.8 M23.297,72.162v21.6 M30.497,64.962l-7.2,7.2 M44.897,64.962h-14.4
		 M52.097,57.762l-7.2,7.2 M52.097,54.162v3.6 M44.897,115.362v10.8"/>
	<rect x="42.895" y="124.159" fill="#FFFFFF" width="4.005" height="4.005"/>
	<rect x="14.094" y="124.159" fill="#FFFFFF" width="4.005" height="4.005"/>
	
		<path fill="none" stroke="#FFFFFF" stroke-width="1.152" stroke-linecap="round" stroke-linejoin="round" stroke-miterlimit="10" d="
		M16.097,126.162l-3.6-3.601 M12.497,122.562v-57.6 M12.497,64.962l-1.8-5.4 M10.697,59.562V45.162"/>
	<rect x="8.694" y="43.159" fill="#FFFFFF" width="4.005" height="4.005"/>
	<rect x="42.895" y="43.159" fill="#FFFFFF" width="4.005" height="4.005"/>
	
		<path fill="none" stroke="#FFFFFF" stroke-width="1.152" stroke-linecap="round" stroke-linejoin="round" stroke-miterlimit="10" d="
		M44.897,45.162v9 M37.697,75.762v18 M44.897,75.762v18 M52.097,93.762v-7.2 M52.097,86.562l36-36 M88.097,50.562h50.4
		 M138.497,50.562v-7.199 M138.497,43.362h2.7 M185.835,28.962v8.461 M185.835,37.423l-0.538,0.539"/>
	<rect x="183.294" y="35.96" fill="#FFFFFF" width="4.005" height="4.004"/>
	<rect x="143.694" y="35.96" fill="#FFFFFF" width="4.006" height="4.004"/>
	
		<path fill="none" stroke="#FFFFFF" stroke-width="1.152" stroke-linecap="round" stroke-linejoin="round" stroke-miterlimit="10" d="
		M145.697,37.962v0.9 M145.697,38.862l-4.5,4.5 M59.297,93.762v-10.8 M59.297,82.962l28.8-28.8 M88.097,54.162h54 M142.096,54.162
		v-7.2 M142.096,46.962h2.701 M144.797,46.962l0.899-0.9"/>
	<rect x="143.694" y="44.06" fill="#FFFFFF" width="4.006" height="4.005"/>
	<rect x="157.194" y="44.06" fill="#FFFFFF" width="4.006" height="4.005"/>
	
		<path fill="none" stroke="#FFFFFF" stroke-width="1.152" stroke-linecap="round" stroke-linejoin="round" stroke-miterlimit="10" d="
		M159.197,46.062h5.399 M164.596,46.062l6.301-6.3 M170.897,39.762V29.501 M170.897,29.501l0.539-0.539 M66.497,79.362v14.399
		 M88.097,57.762l-21.6,21.601 M147.497,61.362l-9-3.601 M138.497,57.762h-3.6 M134.897,57.762h-46.8 M134.897,57.762l3.6,3.601
		 M138.497,61.362v3.6 M73.697,93.762v-7.2 M73.697,86.562l-3.6-3.6 M70.097,82.962v-3.6 M70.097,79.362l18-18 M88.097,61.362h36
		 M124.096,61.362l5.4,0.899"/>
	<rect x="127.495" y="60.26" fill="#FFFFFF" width="4.004" height="4.005"/>
	<rect x="127.495" y="37.76" fill="#FFFFFF" width="4.004" height="4.005"/>
	
		<path fill="none" stroke="#FFFFFF" stroke-width="1.152" stroke-linecap="round" stroke-linejoin="round" stroke-miterlimit="10" d="
		M129.497,39.762l5.4-10.8 M135.436,28.962h-0.539 M152.897,32.562v25.2 M149.835,28.962h-7.2 M142.096,28.962h0.539
		 M157.036,28.962h7.199 M178.096,57.762v-28.8 M152.897,57.762h25.199 M26.897,50.562l5.669-14.399 M23.297,54.162l3.6-3.601
		 M26.897,50.562l3.6,3.601 M52.097,75.762h7.2 M59.297,75.762l21.6-21.6 M80.897,46.962l-3.6-3.6 M77.297,43.362h-3.6
		 M80.897,46.962h3.6 M84.497,46.962h50.4 M134.897,46.962v-7.2 M80.897,82.962v10.8 M77.297,79.362l3.6,3.6 M206.897,138.805
		l-10.801-9.043 M91.697,68.562l-10.8,14.4 M124.096,64.962H95.297 M156.497,97.362l-3.6-3.601 M152.897,93.762h-7.2
		 M145.697,93.762l-3.601-3.6 M142.096,90.162l-12.162-17.027 M129.934,73.135l-5.838-8.173 M178.096,25.362v3.6 M181.697,21.762
		l-3.601,3.601 M203.297,21.762h-21.601 M206.897,25.362l-3.6-3.601 M206.897,28.962v-3.6 M178.096,28.962h0.539 M206.897,28.962
		h0.539 M36.301,28.962h-3.735 M32.566,28.962v7.2 M156.497,133.362v-36 M156.497,133.362h18 M174.497,133.362l12.6,12.6
		 M187.096,145.962h5.4 M192.497,145.962l1.801,1.8 M194.297,147.762v7.2 M194.297,154.962h12.6 M206.897,154.962v-16.157
		 M102.497,140.562v3.601 M102.497,144.162l7.2,7.2 M109.697,151.362l39.601,39.6 M149.297,190.962h10.799 M160.096,190.962v14.4"/>
	<rect x="158.094" y="203.359" fill="#FFFFFF" width="4.005" height="4.005"/>
	<rect x="204.895" y="203.359" fill="#FFFFFF" width="4.004" height="4.005"/>
	
		<path fill="none" stroke="#FFFFFF" stroke-width="1.152" stroke-linecap="round" stroke-linejoin="round" stroke-miterlimit="10" d="
		M206.897,205.362v-50.4 M88.097,115.362v32.399 M88.097,147.762l3.6,3.601 M91.697,151.362h18 M134.897,39.762h3.6 M138.497,39.762
		l3.6-10.8 M138.497,72.162l-0.973,0.973 M137.524,73.135h-7.59 M149.835,28.962h7.2 M152.897,32.562l3.6-3.6 M156.497,28.962h0.539
		 M206.897,28.962h-0.17 M32.566,36.162h33.931 M66.497,36.162l7.2,7.2 M80.897,54.162v-7.2 M95.297,64.962l-3.6,3.6"/>
	<rect x="89.694" y="66.56" fill="#FFFFFF" width="4.005" height="4.005"/>
	<rect x="89.694" y="40.46" fill="#FFFFFF" width="4.005" height="4.004"/>
	
		<path fill="none" stroke="#FFFFFF" stroke-width="1.152" stroke-linecap="round" stroke-linejoin="round" stroke-miterlimit="10" d="
		M91.697,42.462h-3.6 M88.097,42.462l-3.6,4.5 M199.697,64.962v-36 M188.897,75.762l10.8-10.8 M199.697,28.962h0.538
		 M188.897,75.762v10.8 M106.097,25.362l-3.6-3.601 M106.097,28.962v-3.6 M106.097,28.962h0.539 M37.697,57.762v-3.6 M34.097,61.362
		l3.6-3.601 M19.697,61.362h14.4 M16.097,57.762l3.6,3.601 M31.531,21.762l-1.935,1.8 M29.597,23.562v4.656 M29.597,28.218
		l-4.287,4.287 M25.31,32.505h-0.156 M25.153,32.505l-9.057,9.057 M16.097,41.562v16.2 M77.297,122.562v14.4 M80.897,118.962
		l-3.6,3.6 M80.897,115.362v3.6 M95.297,93.762h-3.6 M91.697,93.762h-3.6 M91.697,93.762V79.362 M30.497,97.362V75.762
		 M34.097,100.962l-3.6-3.6 M84.497,100.962h-3.6 M80.897,100.962h-46.8 M91.697,93.762l-7.2,7.2 M80.897,100.962v14.4
		 M37.697,39.762v14.4 M62.897,39.762h-25.2 M70.097,61.362v-14.4 M70.097,46.962l-7.2-7.2 M62.897,68.562l7.2-7.199 M34.097,68.562
		h28.8 M30.497,72.162l3.6-3.601 M30.497,75.762v-3.6 M41.701,28.962h4.635 M52.635,21.762h49.861 M46.335,28.962l6.3-7.2
		 M52.635,21.762H31.531 M102.497,21.762h72 M174.497,21.762l3.6-3.6 M178.096,18.162h28.801 M206.897,18.162l7.199,7.2
		 M188.897,86.562h9 M197.897,86.562l0.326,22.479 M198.223,109.041l-2.127,6.321 M181.697,90.162l3.601-3.601 M185.297,86.562h3.6
		 M214.096,25.362v57.6 M214.096,82.962l-3.6,3.6 M210.497,86.562h-12.6 M41.297,136.962h7.2 M37.697,133.362l3.6,3.6
		 M37.697,133.362v-18 M188.897,129.762v10.8 M188.897,140.562h10.8 M199.697,140.562v9"/>
	<rect x="197.694" y="147.56" fill="#FFFFFF" width="4.006" height="4.005"/>
	<rect x="46.494" y="142.159" fill="#FFFFFF" width="4.005" height="4.005"/>
	
		<path fill="none" stroke="#FFFFFF" stroke-width="1.152" stroke-linecap="round" stroke-linejoin="round" stroke-miterlimit="10" d="
		M48.497,144.162v-7.2 M188.897,154.962l-18-18 M170.897,136.962h-21.6 M188.897,154.962l-0.145,0.288 M95.297,212.562h3.6
		 M91.697,216.162l3.6-3.601 M91.697,219.762v-3.6 M149.297,277.362l-57.601-57.601 M188.897,277.362h-39.6 M199.697,266.562
		l-10.8,10.801 M199.697,201.762v64.8 M188.897,190.962l10.8,10.8 M98.897,212.562l3.401-2.324 M188.897,190.962l-0.145-0.288
		 M188.897,187.362v-28.801 M188.897,158.562l-0.145-3.312 M188.897,187.362l-0.145,3.312 M116.897,115.362v14.399 M116.897,129.762
		l3.6,3.601 M120.497,133.362h3.6"/>
	<rect x="122.094" y="131.359" fill="#FFFFFF" width="4.005" height="4.005"/>
	<rect x="143.694" y="131.359" fill="#FFFFFF" width="4.006" height="4.005"/>
	
		<path fill="none" stroke="#FFFFFF" stroke-width="1.152" stroke-linecap="round" stroke-linejoin="round" stroke-miterlimit="10" d="
		M145.697,133.362l3.601,3.6 M44.897,230.562v28.801 M44.897,259.362l0.144,3.312 M44.897,230.562l0.144-3.312 M44.897,158.562
		v28.801 M44.897,187.362l0.144,3.312 M44.897,158.562l0.144-3.312 M44.897,190.962v36 M44.897,226.962l0.144,0.288 M44.897,190.962
		l0.144-0.288 M188.897,230.562v28.801 M188.897,259.362l-0.145,3.312 M188.897,230.562l-0.145-3.312 M174.497,158.562h-25.199
		 M149.297,158.562l-18-18 M131.297,140.562v-25.199 M174.497,158.562v28.801 M174.497,187.362l0.145,3.312 M174.497,158.562
		l0.145-3.312 M188.897,205.362v21.6 M174.497,190.962l14.4,14.4 M188.897,226.962l-0.145,0.288 M174.497,190.962l0.145-0.288
		 M52.097,270.162l-7.2-7.2 M62.897,270.162h-10.8 M88.097,244.962l-25.2,25.2 M88.097,212.562v32.4 M95.297,205.362l-7.2,7.199
		 M106.097,205.362h-10.8 M116.897,216.162l-10.8-10.8 M116.897,219.762v-3.6 M167.297,270.162l-50.4-50.4 M181.697,270.162h-14.399
		 M188.897,262.962l-7.2,7.2 M44.897,262.962l0.144-0.288 M188.897,262.962l-0.145-0.288 M23.297,133.362v-32.4 M23.297,100.962
		l-3.6-3.6 M19.697,97.362V68.562"/>
	<rect x="17.694" y="66.56" fill="#FFFFFF" width="4.005" height="4.005"/>
	<rect x="57.294" y="61.159" fill="#FFFFFF" width="4.005" height="4.005"/>
	
		<path fill="none" stroke="#FFFFFF" stroke-width="1.152" stroke-linecap="round" stroke-linejoin="round" stroke-miterlimit="10" d="
		M59.297,63.162v-9 M95.297,140.562v-25.199 M102.497,126.162v-10.8 M109.697,136.962l-7.2-10.8 M109.697,140.562v-3.6
		 M80.897,28.962l-3.6,7.2 M99.436,28.962H80.897 M160.096,90.162l-7.199-7.2 M152.897,79.362v-14.4 M152.897,79.362l36-25.2
		 M152.897,82.962v-3.6 M160.096,90.162h14.4"/>
</g>
</svg>
